<svg xmlns="http://www.w3.org/2000/svg" width="1258" height="631" fill="none"><g fill-rule="evenodd" clip-rule="evenodd" filter="url(#a)" opacity=".2"><path fill="url(#b)" d="M434.427 619.522c17.378 35.183-11.488 73.128-29.731 107.869-12.485 23.777-33.307 37.428-54.929 53.355-39.033 28.752-70.359 86.101-117.144 73.395-49.532-13.453-75.548-74.286-75.113-125.61.379-44.601 44.89-70.279 77.04-101.194 27.584-26.524 52.691-58.828 90.93-60.323 42.382-1.658 90.164 14.481 108.947 52.508Z"/><path fill="url(#c)" d="M194.709 367.608c35.473 4.313 49.609 43.903 75.072 69.02 34.27 33.804 97.137 50.769 95.174 98.911-2.06 50.513-57.233 79.716-103.299 100.349-44.087 19.746-93.442 27.316-137.5 7.502-45.492-20.459-83.547-60.493-90.369-109.983-6.33-45.93 26.637-85.07 58.9-118.312 27.504-28.337 62.858-52.249 102.022-47.487Z"/><path fill="url(#d)" d="M1490.38 560.058c8.63 50.078 13.27 115.438-34.2 133.586-43.22 16.526-59.46-52.536-92.17-85.271-29.1-29.125-87-42.941-75.4-82.443 15.57-52.981 69.79-92.99 124.23-83.781 51.28 8.674 68.7 66.659 77.54 117.909Z"/><path fill="url(#e)" d="M235.598 33.103c12.553-.71 25.572 2.156 33.94 11.484 8.891 9.91 12.531 23.83 9.301 36.715-3.16 12.606-13.711 21.211-25.318 27.185-12.16 6.259-26.557 12.167-38.62 5.724-11.735-6.268-13.606-21.414-15.339-34.544-1.477-11.187-.298-22.548 6.622-31.491 7.076-9.143 17.827-14.416 29.414-15.073Z"/></g><defs><linearGradient id="b" x1="280.003" x2="198.988" y1="74.998" y2="77.078" gradientUnits="userSpaceOnUse"><stop stop-color="#9F01EA"/><stop offset="1" stop-color="#56D5E4"/></linearGradient><linearGradient id="c" x1="280.003" x2="198.988" y1="74.998" y2="77.078" gradientUnits="userSpaceOnUse"><stop stop-color="#9F01EA"/><stop offset="1" stop-color="#56D5E4"/></linearGradient><linearGradient id="d" x1="1495.91" x2="-36.203" y1="33" y2="135.648" gradientUnits="userSpaceOnUse"><stop stop-color="#49CCF9"/><stop offset="1" stop-color="#8930FD"/></linearGradient><linearGradient id="e" x1="280.003" x2="198.988" y1="74.998" y2="77.078" gradientUnits="userSpaceOnUse"><stop stop-color="#9F01EA"/><stop offset="1" stop-color="#56D5E4"/></linearGradient><filter id="a" width="1528.91" height="888.951" x="0" y="0" color-interpolation-filters="sRGB" filterUnits="userSpaceOnUse"><feFlood flood-opacity="0" result="BackgroundImageFix"/><feBlend in="SourceGraphic" in2="BackgroundImageFix" result="shape"/><feGaussianBlur result="effect1_foregroundBlur_1001_90" stdDeviation="16.5"/></filter></defs></svg>