<svg xmlns="http://www.w3.org/2000/svg" width="1609" height="1856" fill="none"><g filter="url(#a)" opacity=".2"><path fill="url(#b)" fill-rule="evenodd" d="M427.427 1259.52c17.378 35.18-11.488 73.13-29.731 107.87-12.485 23.78-33.307 37.43-54.929 53.36-39.033 28.75-70.359 86.1-117.144 73.39-49.532-13.45-75.548-74.28-75.113-125.61.379-44.6 44.89-70.28 77.04-101.19 27.584-26.53 52.691-58.83 90.93-60.33 42.382-1.65 90.164 14.48 108.947 52.51Z" clip-rule="evenodd"/></g><g filter="url(#c)" opacity=".2"><path fill="url(#d)" fill-rule="evenodd" d="M227.709 1151.61c35.473 4.31 49.609 43.9 75.072 69.02 34.27 33.8 97.137 50.77 95.174 98.91-2.06 50.51-57.233 79.72-103.299 100.35-44.087 19.74-93.442 27.31-137.5 7.5-45.491-20.46-83.547-60.49-90.369-109.98-6.33-45.93 26.637-85.07 58.901-118.31 27.503-28.34 62.857-52.25 102.021-47.49Z" clip-rule="evenodd"/></g><path fill="url(#e)" fill-rule="evenodd" d="M792.935 139.934c16.687 31.853 19.622 68.078 8.29 102.233-9.525 28.706-39.055 40.274-62.084 59.893-39.824 33.929-69.067 113.61-116.942 92.626-47.92-21.004-3.035-97.114-11.213-148.797-6.148-38.852-42.888-71.223-29.454-108.214 18.329-50.47 54.457-109.022 108.138-108.448 53.122.568 78.625 63.674 103.265 110.707Z" clip-rule="evenodd" opacity=".2"/><g filter="url(#f)" opacity=".3"><path fill="url(#g)" fill-rule="evenodd" d="M1483.38 1200.06c8.63 50.08 13.27 115.44-34.19 133.58-43.23 16.53-59.47-52.53-92.18-85.27-29.1-29.12-87-42.94-75.39-82.44 15.56-52.98 69.78-92.99 124.22-83.78 51.28 8.67 68.7 66.66 77.54 117.91Z" clip-rule="evenodd"/></g><path fill="url(#h)" fill-rule="evenodd" d="M642.149 9.298c41.197-5.676 79.227 27.458 106.557 58.8 23.928 27.44 19.317 67.573 33.045 101.293 15.397 37.821 58.183 67.239 51.998 107.603-6.247 40.764-44.341 71.817-82.052 88.517-34.244 15.165-72.112-4.788-109.548-3.666-39.242 1.176-81.298 31.443-114.427 10.379-33.009-20.987-34.689-68.824-38.692-107.732-3.335-32.414 6.17-63.281 17.974-93.653 11.13-28.639 28.263-52.487 47.979-76.055 26.768-31.996 45.837-79.793 87.166-85.486Z" clip-rule="evenodd" opacity=".2"/><g filter="url(#i)" opacity=".2"><path fill="url(#j)" fill-rule="evenodd" d="M1477.56 407.079c9.45-.542 19.26 1.642 25.56 8.749 6.7 7.55 9.44 18.157 7.01 27.973-2.38 9.605-10.33 16.162-19.07 20.713-9.16 4.769-20 9.27-29.09 4.361-8.83-4.775-10.24-16.316-11.55-26.319-1.11-8.523-.22-17.18 4.99-23.993 5.33-6.967 13.43-10.984 22.15-11.484Z" clip-rule="evenodd"/></g><g filter="url(#k)" opacity=".2"><path fill="url(#l)" fill-rule="evenodd" d="M228.598 673.103c12.553-.711 25.572 2.156 33.94 11.484 8.891 9.909 12.531 23.831 9.301 36.715-3.16 12.606-13.711 21.211-25.318 27.185-12.16 6.259-26.557 12.167-38.62 5.724-11.735-6.268-13.606-21.414-15.339-34.544-1.477-11.187-.298-22.548 6.622-31.491 7.076-9.143 17.827-14.416 29.414-15.073Z" clip-rule="evenodd"/></g><defs><linearGradient id="b" x1="351.912" x2="226.659" y1="1428.5" y2="1257.18" gradientUnits="userSpaceOnUse"><stop stop-color="#9F01EA"/><stop offset="1" stop-color="#56D5E4"/></linearGradient><linearGradient id="d" x1="398.012" x2="66.043" y1="1294.99" y2="1305.18" gradientUnits="userSpaceOnUse"><stop stop-color="#9F01EA"/><stop offset="1" stop-color="#56D5E4"/></linearGradient><linearGradient id="e" x1="873.711" x2="678.377" y1="207.554" y2="-4.417" gradientUnits="userSpaceOnUse"><stop stop-color="#49CCF9"/><stop offset="1" stop-color="#8930FD"/></linearGradient><linearGradient id="g" x1="1505.48" x2="1443.9" y1="1324.38" y2="1056.62" gradientUnits="userSpaceOnUse"><stop stop-color="#49CCF9"/><stop offset="1" stop-color="#8930FD"/></linearGradient><linearGradient id="h" x1="834.355" x2="470.81" y1="8.658" y2="21.437" gradientUnits="userSpaceOnUse"><stop stop-color="#49CCF9"/><stop offset="1" stop-color="#8930FD"/></linearGradient><linearGradient id="j" x1="1511" x2="1449.99" y1="438.999" y2="440.547" gradientUnits="userSpaceOnUse"><stop stop-color="#9F01EA"/><stop offset="1" stop-color="#56D5E4"/></linearGradient><linearGradient id="l" x1="273.003" x2="191.988" y1="714.998" y2="717.078" gradientUnits="userSpaceOnUse"><stop stop-color="#9F01EA"/><stop offset="1" stop-color="#56D5E4"/></linearGradient><filter id="a" width="392.283" height="399.052" x="95.505" y="1151.9" color-interpolation-filters="sRGB" filterUnits="userSpaceOnUse"><feFlood flood-opacity="0" result="BackgroundImageFix"/><feBlend in="SourceGraphic" in2="BackgroundImageFix" result="shape"/><feGaussianBlur result="effect1_foregroundBlur_1_63" stdDeviation="27.5"/></filter><filter id="c" width="464" height="420" x="0" y="1085" color-interpolation-filters="sRGB" filterUnits="userSpaceOnUse"><feFlood flood-opacity="0" result="BackgroundImageFix"/><feBlend in="SourceGraphic" in2="BackgroundImageFix" result="shape"/><feGaussianBlur result="effect1_foregroundBlur_1_63" stdDeviation="33"/></filter><filter id="f" width="340.811" height="387.335" x="1214.1" y="1014.83" color-interpolation-filters="sRGB" filterUnits="userSpaceOnUse"><feFlood flood-opacity="0" result="BackgroundImageFix"/><feBlend in="SourceGraphic" in2="BackgroundImageFix" result="shape"/><feGaussianBlur result="effect1_foregroundBlur_1_63" stdDeviation="33"/></filter><filter id="i" width="127" height="130" x="1417" y="374" color-interpolation-filters="sRGB" filterUnits="userSpaceOnUse"><feFlood flood-opacity="0" result="BackgroundImageFix"/><feBlend in="SourceGraphic" in2="BackgroundImageFix" result="shape"/><feGaussianBlur result="effect1_foregroundBlur_1_63" stdDeviation="16.5"/></filter><filter id="k" width="147" height="150" x="159" y="640" color-interpolation-filters="sRGB" filterUnits="userSpaceOnUse"><feFlood flood-opacity="0" result="BackgroundImageFix"/><feBlend in="SourceGraphic" in2="BackgroundImageFix" result="shape"/><feGaussianBlur result="effect1_foregroundBlur_1_63" stdDeviation="16.5"/></filter></defs></svg>