<svg xmlns="http://www.w3.org/2000/svg" width="40" height="40" fill="none"><path fill="#fff" d="M40 20a20 20 0 0 0-5.858-14.142L30.13 9.87A14.325 14.325 0 0 1 34.326 20H40ZM20 0A20 20 0 0 0 5.858 5.858L9.87 9.87A14.326 14.326 0 0 1 20 5.674V0Z"/><path fill="#fff" d="M5.858 5.858A20 20 0 0 0 0 20h5.674c0-3.8 1.509-7.444 4.196-10.13L5.858 5.858ZM0 20a20 20 0 0 0 5.858 14.142L9.87 30.13A14.326 14.326 0 0 1 5.674 20H0ZM5.858 34.142A20 20 0 0 0 20 40v-5.674c-3.8 0-7.444-1.509-10.13-4.196l-4.012 4.012ZM20 40a20 20 0 0 0 14.142-5.858L30.13 30.13A14.326 14.326 0 0 1 20 34.326V40ZM34.142 34.142A20 20 0 0 0 40 20h-5.674c0 3.8-1.509 7.444-4.196 10.13l4.012 4.012Z"/></svg>