<svg xmlns="http://www.w3.org/2000/svg" width="1799" height="2080" fill="none"><g filter="url(#a)" opacity=".15"><path fill="url(#b)" fill-rule="evenodd" d="M1692.44 129.512c23.28 3.062 51.25-6.048 65.83 12.3 14.54 18.317 5.71 44.929-3.23 66.516-7.01 16.894-23.84 24.396-38.83 34.942-22.12 15.566-39.86 44.131-66.48 39.156-31.52-5.89-55.95-33.22-65.28-63.78-10.12-33.178-10.77-75.454 16.04-97.582 24.93-20.581 59.84 4.226 91.95 8.448Z" clip-rule="evenodd"/></g><g filter="url(#c)" opacity=".3"><path fill="url(#d)" fill-rule="evenodd" d="M1493.22 1705.91c38.77 6.05 53.17 51.5 71.07 86.42 12.25 23.9 11.42 48.78 11.99 75.63 1.03 48.47 29.87 107.11-7.45 138.04-39.53 32.75-104.24 18.99-145.95-10.93-36.25-25.99-31.61-77.16-38.37-121.25-5.8-37.83-17.75-76.96 3.05-109.08 23.05-35.6 63.76-65.37 105.66-58.83Z" clip-rule="evenodd"/></g><g filter="url(#e)" opacity=".1"><path fill="url(#f)" fill-rule="evenodd" d="M198.303 621.707c16.832 2.628 23.084 22.359 30.853 37.519 5.318 10.376 4.958 21.179 5.205 32.835.447 21.042 12.97 46.497-3.235 59.926-17.158 14.217-45.253 8.243-63.361-4.743-15.735-11.284-13.721-33.502-16.656-52.641-2.519-16.422-7.708-33.409 1.321-47.355 10.007-15.456 27.681-28.381 45.873-25.541Z" clip-rule="evenodd"/></g><g filter="url(#g)" opacity=".2"><path fill="url(#h)" fill-rule="evenodd" d="M1555.71 691.608c35.47 4.313 49.61 43.903 75.07 69.02 34.27 33.803 97.14 50.769 95.18 98.911-2.06 50.513-57.24 79.716-103.3 100.349-44.09 19.746-93.45 27.316-137.5 7.502-45.5-20.459-83.55-60.493-90.37-109.983-6.33-45.93 26.63-85.07 58.9-118.312 27.5-28.337 62.86-52.249 102.02-47.487Z" clip-rule="evenodd"/></g><g filter="url(#i)" opacity=".15"><path fill="url(#j)" fill-rule="evenodd" d="M442.423 33.224c13.035 1.587 18.23 16.159 27.587 25.403 12.593 12.441 35.695 18.686 34.974 36.405-.757 18.591-21.032 29.34-37.96 36.934-16.201 7.267-34.337 10.054-50.527 2.761-16.717-7.53-30.701-22.265-33.208-40.48-2.326-16.905 9.788-31.31 21.644-43.545 10.107-10.43 23.099-19.231 37.49-17.478Z" clip-rule="evenodd"/></g><path fill="url(#k)" fill-rule="evenodd" d="M267.193 989.593c71.756-4.081 146.173 12.367 194.009 65.897 50.819 56.86 71.623 136.74 53.163 210.67-18.062 72.34-78.375 121.71-144.719 155.99-69.509 35.92-151.805 69.82-220.756 32.85-67.079-35.97-77.772-122.88-87.679-198.22-8.44-64.19-1.704-129.39 37.856-180.7 40.446-52.46 101.898-82.72 168.126-86.487Z" clip-rule="evenodd" opacity=".2"/><g filter="url(#l)" opacity=".2"><path fill="url(#m)" fill-rule="evenodd" d="M888.294 784.991c9.453-.542 19.258 1.642 25.56 8.749 6.695 7.55 9.436 18.157 7.004 27.974-2.379 9.604-10.326 16.161-19.066 20.712-9.158 4.769-20.001 9.27-29.085 4.361-8.837-4.775-10.246-16.316-11.551-26.319-1.112-8.523-.225-17.18 4.987-23.993 5.329-6.967 13.425-10.984 22.151-11.484Z" clip-rule="evenodd"/></g><path fill="url(#n)" fill-rule="evenodd" d="M281.826 1038.11c57.99 13.54 106.585 49.04 137.148 100.19 25.686 42.99 8.242 92.52 7.925 142.61-.548 86.62 67.718 209.46-10.387 246.77-78.181 37.35-125.045-101.23-198.693-146.89-55.363-34.32-135.7-23.27-167.545-80.13-43.45-77.56-77.773-186.18-18.976-252.85 58.186-65.977 164.9-29.69 250.528-9.7Z" clip-rule="evenodd" opacity=".3"/><g filter="url(#o)" opacity=".2"><path fill="url(#p)" fill-rule="evenodd" d="M336.561 1896.08c9.454-.54 19.258 1.64 25.561 8.75 6.695 7.55 9.436 18.16 7.004 27.97-2.38 9.61-10.326 16.16-19.067 20.71-9.158 4.77-20 9.27-29.084 4.37-8.838-4.78-10.247-16.32-11.552-26.32-1.112-8.53-.224-17.18 4.988-24 5.328-6.96 13.425-10.98 22.15-11.48Z" clip-rule="evenodd"/></g><defs><linearGradient id="b" x1="1766.01" x2="1578.01" y1="197.997" y2="203.53" gradientUnits="userSpaceOnUse"><stop stop-color="#9F01EA"/><stop offset="1" stop-color="#56D5E4"/></linearGradient><linearGradient id="d" x1="1587.89" x2="1375.69" y1="1864.95" y2="1868.7" gradientUnits="userSpaceOnUse"><stop stop-color="#9F01EA"/><stop offset="1" stop-color="#56D5E4"/></linearGradient><linearGradient id="f" x1="239.401" x2="147.28" y1="690.754" y2="692.379" gradientUnits="userSpaceOnUse"><stop stop-color="#9F01EA"/><stop offset="1" stop-color="#56D5E4"/></linearGradient><linearGradient id="h" x1="1726.01" x2="1394.04" y1="834.994" y2="845.18" gradientUnits="userSpaceOnUse"><stop stop-color="#9F01EA"/><stop offset="1" stop-color="#56D5E4"/></linearGradient><linearGradient id="j" x1="505.004" x2="383.016" y1="85.998" y2="89.735" gradientUnits="userSpaceOnUse"><stop stop-color="#9F01EA"/><stop offset="1" stop-color="#56D5E4"/></linearGradient><linearGradient id="k" x1="520.999" x2="34.559" y1="989" y2="1006.61" gradientUnits="userSpaceOnUse"><stop stop-color="#49CCF9"/><stop offset="1" stop-color="#8930FD"/></linearGradient><linearGradient id="m" x1="921.735" x2="860.722" y1="816.911" y2="818.459" gradientUnits="userSpaceOnUse"><stop stop-color="#9F01EA"/><stop offset="1" stop-color="#56D5E4"/></linearGradient><linearGradient id="n" x1="453.999" x2="-23.102" y1="1010" y2="1025.58" gradientUnits="userSpaceOnUse"><stop stop-color="#49CCF9"/><stop offset="1" stop-color="#8930FD"/></linearGradient><linearGradient id="p" x1="370.002" x2="308.99" y1="1928" y2="1929.55" gradientUnits="userSpaceOnUse"><stop stop-color="#9F01EA"/><stop offset="1" stop-color="#56D5E4"/></linearGradient><filter id="a" width="254" height="236" x="1545" y="80" color-interpolation-filters="sRGB" filterUnits="userSpaceOnUse"><feFlood flood-opacity="0" result="BackgroundImageFix"/><feBlend in="SourceGraphic" in2="BackgroundImageFix" result="shape"/><feGaussianBlur result="effect1_foregroundBlur_1_79" stdDeviation="16.5"/></filter><filter id="c" width="322.081" height="429.919" x="1320.8" y="1650" color-interpolation-filters="sRGB" filterUnits="userSpaceOnUse"><feFlood flood-opacity="0" result="BackgroundImageFix"/><feBlend in="SourceGraphic" in2="BackgroundImageFix" result="shape"/><feGaussianBlur result="effect1_foregroundBlur_1_79" stdDeviation="27.5"/></filter><filter id="e" width="158.072" height="204.887" x="114.326" y="588.313" color-interpolation-filters="sRGB" filterUnits="userSpaceOnUse"><feFlood flood-opacity="0" result="BackgroundImageFix"/><feBlend in="SourceGraphic" in2="BackgroundImageFix" result="shape"/><feGaussianBlur result="effect1_foregroundBlur_1_79" stdDeviation="16.5"/></filter><filter id="g" width="464" height="420" x="1328" y="625" color-interpolation-filters="sRGB" filterUnits="userSpaceOnUse"><feFlood flood-opacity="0" result="BackgroundImageFix"/><feBlend in="SourceGraphic" in2="BackgroundImageFix" result="shape"/><feGaussianBlur result="effect1_foregroundBlur_1_79" stdDeviation="33"/></filter><filter id="i" width="188" height="172" x="350" y="0" color-interpolation-filters="sRGB" filterUnits="userSpaceOnUse"><feFlood flood-opacity="0" result="BackgroundImageFix"/><feBlend in="SourceGraphic" in2="BackgroundImageFix" result="shape"/><feGaussianBlur result="effect1_foregroundBlur_1_79" stdDeviation="16.5"/></filter><filter id="l" width="127" height="130" x="827.732" y="751.912" color-interpolation-filters="sRGB" filterUnits="userSpaceOnUse"><feFlood flood-opacity="0" result="BackgroundImageFix"/><feBlend in="SourceGraphic" in2="BackgroundImageFix" result="shape"/><feGaussianBlur result="effect1_foregroundBlur_1_79" stdDeviation="16.5"/></filter><filter id="o" width="127" height="130" x="276" y="1863" color-interpolation-filters="sRGB" filterUnits="userSpaceOnUse"><feFlood flood-opacity="0" result="BackgroundImageFix"/><feBlend in="SourceGraphic" in2="BackgroundImageFix" result="shape"/><feGaussianBlur result="effect1_foregroundBlur_1_79" stdDeviation="16.5"/></filter></defs></svg>