<svg xmlns="http://www.w3.org/2000/svg" width="823" height="1050" fill="none"><g filter="url(#a)"><path fill="#39029C" fill-opacity=".45" fill-rule="evenodd" d="m195 948.04 8-12 358.5-59.96 6.5-3.5 4-3.5 3.5-.5 7.5-7 6-7 3 .5 6 1.5h7l6-4 4-3.99 51-35.98 8-6 4-7.5 3-11.99 4-12.49v-8l-2-6-3.5-6.99-1-7-4.5-17.49-43-96.94 9.5-26.49v-15l25.5-11.98 8-8.5 12-14v-17.48l12-18 36.5-9.99-11-22.98 11-34.49s-105.71 145.14-94 94.45c1.75-7.58 6-18.99 6-18.99l9-17.99 13.5-16.49V475.8l9-22.49v-76.96l3-22.98 4-6-4-9.5-3-30.48 3-11 4-17.48 1-7.5v-10.5l-5-25.48v-42.48l-25.5-27.98-9-13.5-6-5.5-9.5-6.99-9-12.5-16.5-11.98-24-9-20-5.5-21-8L514 88h-66l-51 27.98-13-6-10.5-2.99-19-1.5-18 3-31.5 55.97-11.5 7-5 5-14 12.49-3.5 7-47.5-24.5 2 14 4.5 13.99 2 16 2.5 7.99-5.5 3.5-2.5 7.5 1 7.49 5.5 12.99-30-71.46 10 5.5 1 3 1.5 12.99v16.49l-4 26.48-8.5 2-9 11-13 13.49-5.5 9-25 13.99 32 78.96-24.5 19.48-12.5 20-6 19.48-16.5 75.46-24 82.46-6.5 13.5v20.98l-4.5 8 22.5 283.34 4.5 9.5 8.5 19.49 13 13.49h39l7-4 12.5-9.5Z" clip-rule="evenodd"/></g><defs><filter id="a" width="822.5" height="1049.53" x="0" y="0" color-interpolation-filters="sRGB" filterUnits="userSpaceOnUse"><feFlood flood-opacity="0" result="BackgroundImageFix"/><feBlend in="SourceGraphic" in2="BackgroundImageFix" result="shape"/><feGaussianBlur result="effect1_foregroundBlur_1_291" stdDeviation="44"/></filter></defs></svg>