<svg xmlns="http://www.w3.org/2000/svg">
  <symbol id="arrow-right">
    <svg ><path stroke-linecap="round" stroke-width="8" d="m5.86 4 85.553 85.553"/><path stroke-linecap="round" stroke-width="8" d="M4-4h120.991" transform="matrix(-.70706 .70716 .70706 .70716 97.405 90)"/></svg>
  </symbol>

  <symbol id="play-icon">
    <svg><path d="M.33 5.2A5 5 0 0 1 7.8.85L18.83 7.1a5 5 0 0 1 0 8.7L7.8 22.05A5 5 0 0 1 .33 17.7V5.2Z"/></svg>
  </symbol>

  <symbol id="login-icon">
    <svg fill="none"><path stroke-linecap="square" d="M13.8 5.597A4.798 4.798 0 0 1 9 10.394a4.798 4.798 0 0 1-4.8-4.797A4.798 4.798 0 0 1 9 .8c2.651 0 4.8 2.147 4.8 4.797ZM17 23.185H1V19.99a4.8 4.8 0 0 1 4.8-4.8h6.4a4.8 4.8 0 0 1 4.8 4.8v3.195Z" clip-rule="evenodd"/></svg>
  </symbol>

  <symbol id="email-icon">
    <svg fill="none"><path d="M16.8 12a4.8 4.8 0 1 1-9.6 0 4.8 4.8 0 0 1 9.6 0Zm0 0v1.6a3.2 3.2 0 0 0 6.4 0V12C23.2 5.814 18.186.8 12 .8 5.814.8.8 5.814.8 12c0 6.186 5.014 11.2 11.2 11.2 2.38 0 4.586-.742 6.4-2.008"/></svg>
  </symbol>

  <symbol id="tel-icon">
    <svg fill="none"><path d="M7.55.8H4A3.2 3.2 0 0 0 .8 4v3.2a16 16 0 0 0 16 16H20a3.2 3.2 0 0 0 3.2-3.2v-2.21c0-.6-.34-1.16-.88-1.43l-3.87-1.93a1.6 1.6 0 0 0-2.23.92l-.48 1.43a1.94 1.94 0 0 1-2.22 1.29 9.68 9.68 0 0 1-7.58-7.6c-.2-.95.35-1.9 1.28-2.21L9 7.66a1.6 1.6 0 0 0 1.05-1.9L9.1 2.01A1.6 1.6 0 0 0 7.55.8Z"/></svg>
  </symbol>

  <symbol id="instagram-icon">
    <svg fill="none"><path fill="#fff" fill-rule="evenodd" d="M7.04.15C5.1.24 3.4.7 2.03 2.07.66 3.44.19 5.14.1 7.07.04 8.29-.28 17.4.65 19.8a6.05 6.05 0 0 0 3.5 3.48c.76.3 1.62.5 2.9.55 10.63.49 14.57.22 16.23-4.03.3-.76.5-1.63.55-2.9.49-10.65-.07-12.96-1.93-14.82C20.43.61 18.7-.39 7.04.15Zm.1 21.53a6.62 6.62 0 0 1-2.22-.4A3.9 3.9 0 0 1 2.66 19c-.71-1.81-.48-10.44-.41-11.84.06-1.36.34-2.61 1.3-3.58C4.75 2.4 6.3 1.82 16.8 2.3c1.37.06 2.63.34 3.6 1.3 1.19 1.2 1.78 2.75 1.3 13.21a6.57 6.57 0 0 1-.41 2.21c-1.09 2.77-3.57 3.16-14.14 2.67Zm9.77-16.05a1.43 1.43 0 1 0 2.86 0 1.43 1.43 0 0 0-2.86 0ZM5.84 11.99a6.12 6.12 0 1 0 12.24-.02A6.12 6.12 0 0 0 5.84 12Zm2.15 0a3.98 3.98 0 1 1 7.95 0 3.98 3.98 0 0 1-7.95 0Z" clip-rule="evenodd"/></svg>
  </symbol>

  <symbol id="tiktok-icon">
    <svg fill="none"><path fill="#fff" d="M17.32 5.56c-.15-.08-.3-.16-.44-.26a5.37 5.37 0 0 1-2.42-3.61c-.1-.57-.05-.94-.05-.94h-3.86v14.94l-.01.6v.11a3.28 3.28 0 0 1-3.26 3.03 3.27 3.27 0 0 1-3.26-3.28 3.27 3.27 0 0 1 4.27-3.12V9.09a7.18 7.18 0 0 0-7.18 3.66 7.07 7.07 0 0 0-.44 5.81v.01c.1.26.45 1.16 1.05 1.91.47.6 1.04 1.14 1.67 1.58h.01c1.87 1.27 3.94 1.19 3.94 1.19.36-.01 1.57 0 2.93-.65 1.52-.71 2.38-1.78 2.38-1.78.55-.64.99-1.37 1.3-2.16.35-.92.46-2.02.46-2.46V8.27l.67.44s.9.58 2.3.96c1.01.26 2.37.32 2.37.32V6.15c-.48.05-1.44-.1-2.43-.59Z"/></svg>
  </symbol>

  <symbol id="litres-icon">
    <svg xmlns="http://www.w3.org/2000/svg" width="53" height="12" fill="none"><path fill="#fff" fill-rule="evenodd" d="M4.58 2.26c-.04 1.03-.09 1.97-.14 2.81-.05.85-.12 1.61-.21 2.29-.1.68-.21 1.27-.36 1.8a5.4 5.4 0 0 1-.57 1.34 2.53 2.53 0 0 1-2.21 1.27c-.24 0-.45-.02-.6-.05-.17-.04-.33-.1-.49-.17l.24-1.92a1.18 1.18 0 0 0 .38.06c.16 0 .33-.04.5-.13.16-.08.3-.23.41-.44.16-.24.3-.58.41-1.05.12-.46.22-1.04.31-1.76.1-.72.16-1.57.21-2.56.06-1 .1-2.15.12-3.47H9.1v11.38H6.94v-9.4H4.58ZM15.59 6.8h-.05l-.68 1.18-2.81 3.68h-1.3V3.53h2.06V7.4l-.1 1.1h.07l.64-1.15 2.85-3.82h1.3v8.13H15.5v-3.7l.08-1.16ZM23.14 5.4v6.26h-2.12V5.4h-2.26V3.53h6.58V5.4h-2.2Z" clip-rule="evenodd"/><path fill="#FF4C00" fill-rule="evenodd" d="M29.9 2.03a7 7 0 0 0-1.05.09V5.8l.19.03a3.57 3.57 0 0 0 .54.03h.2c.29 0 .57-.03.85-.08s.53-.15.75-.3c.22-.15.4-.35.53-.61s.2-.6.2-1.03c0-.35-.07-.65-.2-.88-.12-.23-.29-.42-.5-.56a1.9 1.9 0 0 0-.7-.3 3.97 3.97 0 0 0-.8-.08ZM28.16.2a17.3 17.3 0 0 1 1.58-.07c.55 0 1.1.04 1.65.13.56.1 1.06.28 1.5.56.44.27.8.66 1.08 1.15.28.5.42 1.14.42 1.93 0 .71-.12 1.32-.36 1.81-.25.5-.57.9-.97 1.21-.4.32-.85.54-1.36.68-.52.15-1.05.22-1.6.22h-.25a8.84 8.84 0 0 1-1-.07v3.92h-2.16V.39c.45-.08.93-.15 1.47-.2ZM38.5 4.96c-.64.02-.94.19-1.21.5-.27.33-.42.77-.47 1.33l2.95.02c.04-.58-.01-1.03-.23-1.35a1.18 1.18 0 0 0-1.04-.5Zm1.64 6.66c-.54.18-1.12.27-1.73.27-1.28 0-2.2-.39-2.8-1.15a5.03 5.03 0 0 1-.88-3.15c0-1.43.33-2.5 1-3.21a3.63 3.63 0 0 1 2.79-1.08c.4 0 .79.06 1.17.16A2.64 2.64 0 0 1 41.4 5c.18.43.27.96.27 1.59a7.3 7.3 0 0 1-.16 1.54h-4.76c.03.68.24 1.2.55 1.55.3.34.81.52 1.5.52.43 0 .81-.1 1.16-.2.43-.15.84-.35.84-.35l.62 1.31c-.32.26-.75.48-1.3.66ZM48.36 5.1s-.63-.13-1.13-.13c-1.4 0-2.32.83-2.32 2.66 0 1.72.7 2.57 2.17 2.57.48 0 1.4-.13 1.4-.13l.29 1.47c-.4.13-1.15.32-2.06.32-2.87 0-3.93-2.15-3.93-4.34 0-2.2 1.24-4.18 4.1-4.18.52 0 1.17.07 1.78.23l-.3 1.53ZM51.6 5.85c-.64 0-1.16-.54-1.16-1.2 0-.66.52-1.2 1.16-1.2.64 0 1.17.54 1.17 1.2 0 .66-.53 1.2-1.17 1.2ZM52.77 10.58c0 .66-.53 1.2-1.17 1.2-.64 0-1.16-.54-1.16-1.2 0-.66.52-1.2 1.16-1.2.64 0 1.17.54 1.17 1.2Z" clip-rule="evenodd"/></svg>
  </symbol>
</svg>
